<?xml version="1.0" standalone="no"?>
<!DOCTYPE svg PUBLIC "-//W3C//DTD SVG 20010904//EN"
 "http://www.w3.org/TR/2001/REC-SVG-20010904/DTD/svg10.dtd">
<svg version="1.0" xmlns="http://www.w3.org/2000/svg"
 width="2125.000000pt" height="2118.000000pt" viewBox="0 0 2125.000000 2118.000000"
 preserveAspectRatio="xMidYMid meet">

<g transform="translate(0.000000,2118.000000) scale(0.100000,-0.100000)"
fill="#000000" stroke="none">
<path d="M10135 20810 c-367 -22 -848 -85 -1290 -170 -174 -34 -670 -140 -765
-165 -213 -54 -666 -202 -902 -294 -217 -84 -653 -279 -974 -435 -370 -181
-697 -373 -1214 -714 -340 -224 -360 -239 -700 -511 -545 -437 -869 -742
-1256 -1181 -524 -595 -793 -955 -1208 -1618 -221 -354 -438 -765 -601 -1142
-198 -458 -352 -876 -460 -1250 -60 -207 -202 -775 -234 -935 -60 -301 -110
-685 -143 -1105 -17 -217 -17 -1276 0 -1475 66 -774 168 -1404 308 -1915 249
-904 528 -1587 982 -2405 137 -247 351 -585 522 -825 177 -249 533 -692 829
-1030 176 -201 558 -583 736 -737 294 -253 363 -311 460 -389 342 -275 778
-588 1030 -740 721 -437 1198 -673 1879 -928 284 -107 448 -160 781 -251 942
-257 1774 -365 2820 -365 606 0 922 30 1710 161 650 108 1074 213 1630 406
490 170 969 381 1460 645 499 268 1108 676 1605 1074 356 285 531 444 910 823
402 403 598 626 899 1024 598 791 1145 1824 1475 2787 55 159 238 789 290 995
102 410 200 1042 247 1605 30 365 38 1114 15 1460 -36 529 -103 959 -248 1590
-39 172 -164 596 -266 905 -261 785 -696 1666 -1201 2430 -115 175 -530 727
-672 896 -261 310 -579 661 -705 779 -33 30 -124 116 -204 191 -499 470 -1127
940 -1770 1324 -464 276 -1075 582 -1544 771 -144 59 -661 243 -861 307 -318
103 -865 225 -1365 306 -494 80 -778 102 -1395 106 -258 2 -533 0 -610 -5z
m815 -1260 c460 -25 684 -60 1240 -190 296 -69 724 -219 988 -345 192 -92 502
-282 702 -429 239 -176 553 -478 701 -676 189 -251 363 -556 462 -810 49 -124
136 -401 162 -514 72 -318 94 -787 49 -1076 -8 -52 -17 -111 -20 -130 -3 -19
-15 -75 -26 -125 -112 -493 -321 -883 -711 -1323 -354 -400 -745 -646 -1340
-843 -98 -32 -184 -59 -190 -58 -7 0 24 17 69 38 185 87 425 264 633 466 442
430 670 791 815 1290 110 378 151 686 143 1080 -6 324 -31 474 -138 818 -121
389 -370 836 -633 1137 -98 112 -326 329 -446 425 -305 244 -669 461 -980 585
-336 134 -720 227 -1075 260 -143 13 -495 13 -626 -1 -112 -11 -157 -29 -73
-29 185 0 629 -81 839 -153 223 -77 492 -205 681 -324 286 -180 609 -457 776
-666 147 -185 309 -452 397 -654 85 -194 179 -517 218 -743 26 -154 26 -684 0
-850 -28 -172 -89 -402 -142 -536 -59 -150 -168 -374 -233 -481 -131 -217
-384 -511 -577 -672 -280 -234 -638 -430 -960 -525 -396 -117 -603 -142 -1082
-133 -254 5 -319 10 -438 30 -481 85 -823 229 -1195 505 -221 164 -451 382
-578 550 -371 487 -574 1089 -576 1707 0 249 17 391 76 634 85 355 167 540
377 855 104 157 299 374 406 453 l30 22 -27 0 c-67 2 -485 -128 -741 -230
-248 -99 -609 -282 -809 -410 -379 -243 -571 -394 -857 -674 -254 -249 -399
-418 -632 -740 -241 -332 -425 -687 -563 -1084 -182 -524 -214 -1146 -89
-1711 40 -180 118 -403 195 -555 194 -384 499 -760 830 -1023 243 -193 547
-377 731 -443 37 -13 67 -29 67 -35 0 -6 -15 -18 -32 -25 -126 -52 -601 -379
-551 -379 6 0 55 20 109 44 150 66 784 302 1004 373 449 145 1153 312 1670
397 364 60 819 114 1845 221 1589 166 1828 200 2449 356 568 143 829 235 1236
438 703 352 1130 680 1489 1146 403 521 640 1107 690 1708 54 639 -69 1279
-355 1850 -30 60 -50 106 -45 102 28 -17 190 -264 371 -565 305 -507 497
-1015 584 -1550 60 -363 62 -833 7 -1150 -132 -748 -631 -1502 -1356 -2043
-458 -342 -1020 -639 -1575 -832 -241 -83 -745 -224 -1000 -279 -126 -27 -550
-98 -695 -116 -90 -12 -537 -73 -800 -110 -77 -11 -221 -29 -320 -40 -99 -12
-254 -30 -345 -40 -161 -19 -339 -39 -705 -80 -99 -11 -313 -33 -475 -50 -401
-40 -666 -79 -986 -144 -148 -31 -278 -58 -289 -60 -11 -3 -85 -19 -165 -36
-80 -17 -161 -35 -180 -41 -19 -5 -109 -27 -200 -49 -290 -71 -739 -224 -1020
-347 -327 -144 -803 -420 -1078 -626 -219 -163 -609 -516 -769 -695 -251 -281
-511 -668 -687 -1019 -153 -307 -298 -763 -360 -1133 -88 -525 -86 -1143 5
-1610 70 -365 182 -692 319 -930 18 -32 22 -44 10 -30 -116 140 -313 525 -487
955 -46 114 -145 391 -189 530 -152 480 -236 986 -265 1603 -25 544 33 1014
185 1505 151 485 408 957 780 1432 199 255 609 668 819 824 26 19 47 38 47 42
0 4 -69 67 -152 140 -280 244 -590 563 -720 739 -168 228 -343 550 -457 840
-147 375 -219 743 -228 1170 -5 256 -5 264 32 455 l6 30 -24 -29 c-96 -112
-351 -630 -535 -1086 -170 -424 -333 -918 -428 -1305 -53 -214 -160 -681 -198
-865 -107 -509 -192 -1222 -217 -1820 -13 -310 -6 -1202 11 -1420 57 -727 145
-1174 306 -1558 61 -144 59 -139 46 -127 -22 21 -191 331 -323 595 -160 320
-257 553 -381 915 -297 866 -456 1665 -519 2609 -13 200 -7 830 11 1061 56
743 180 1343 432 2090 187 556 310 857 502 1230 294 570 659 1130 1026 1575
61 74 145 178 187 230 43 52 152 178 243 280 631 704 1391 1333 2195 1817 581
349 1096 585 1740 796 736 242 1525 392 2265 430 142 8 493 6 660 -3z m7257
-4777 c140 -189 441 -667 603 -958 272 -491 490 -1035 639 -1600 137 -519 184
-793 223 -1280 17 -216 17 -985 0 -1170 -20 -223 -51 -507 -73 -670 -77 -584
-260 -1229 -577 -2025 -39 -97 -171 -369 -171 -353 -1 7 12 49 29 95 65 181
175 682 216 980 72 534 85 702 91 1208 12 920 -63 2156 -178 2940 -85 582
-203 1147 -333 1595 -136 471 -346 999 -497 1253 -17 28 -29 52 -26 52 2 0 27
-30 54 -67z m-3902 -4374 c513 -36 691 -53 912 -89 352 -57 638 -146 926 -287
59 -29 111 -53 115 -53 4 0 18 -9 32 -20 14 -11 31 -20 39 -20 8 0 22 -6 30
-14 9 -8 39 -26 66 -41 298 -164 737 -575 947 -887 276 -410 438 -811 518
-1283 99 -589 48 -1246 -142 -1835 -109 -337 -233 -612 -419 -925 -309 -523
-564 -827 -1089 -1303 -631 -571 -1337 -1037 -2086 -1378 -482 -219 -915 -370
-1439 -502 -359 -91 -626 -139 -1110 -201 -400 -52 -774 -68 -1192 -52 -478
18 -708 40 -1108 107 -553 91 -1056 254 -1555 504 -303 152 -501 272 -735 448
-383 289 -689 632 -953 1072 -241 400 -383 777 -456 1210 -53 311 -61 413 -60
785 0 326 2 373 22 494 108 643 284 1073 649 1589 250 351 643 732 1013 979
325 218 820 431 1245 537 371 92 681 129 1080 130 854 1 1624 -231 2278 -686
293 -204 617 -501 811 -743 105 -132 268 -374 364 -542 292 -511 466 -1236
449 -1863 -16 -588 -133 -1076 -368 -1540 -252 -499 -558 -846 -1007 -1142
-57 -37 -109 -68 -115 -68 -7 0 -23 -9 -37 -20 -35 -27 -12 -26 96 6 49 14
197 52 329 84 290 71 425 111 655 197 600 223 937 390 1436 709 820 526 1503
1206 1897 1889 267 462 413 881 482 1380 23 160 31 503 16 647 -39 374 -175
753 -409 1143 -299 498 -720 881 -1372 1247 -303 170 -499 238 -955 332 l-120
24 90 -4 c50 -3 153 -9 230 -15z"/>
<path d="M10570 17563 c-291 -29 -485 -114 -746 -325 -139 -112 -289 -327
-365 -523 -128 -331 -114 -755 35 -1055 130 -263 337 -481 563 -594 140 -70
359 -129 545 -148 229 -23 451 19 673 126 196 96 346 212 465 360 217 274 324
645 279 973 -59 435 -314 803 -715 1033 -196 112 -505 177 -734 153z"/>
<path d="M9325 8264 c-279 -31 -487 -81 -765 -186 -190 -72 -463 -236 -640
-385 -128 -108 -327 -316 -412 -430 -123 -166 -248 -385 -313 -548 -116 -292
-197 -778 -180 -1085 23 -425 118 -743 330 -1107 111 -188 331 -463 492 -613
71 -66 248 -202 346 -264 189 -121 518 -260 726 -307 123 -28 294 -50 468 -61
167 -10 213 -10 365 5 360 36 618 109 927 263 367 182 689 463 922 804 238
347 373 723 420 1169 14 137 6 465 -15 597 -49 310 -141 597 -267 833 -113
211 -226 358 -439 571 -271 271 -564 464 -902 594 -175 67 -308 102 -503 132
-97 15 -477 27 -560 18z"/>
</g>
</svg>
